<?xml version="1.0" encoding="utf-8"?>
<!-- Generator: Adobe Illustrator 26.0.1, SVG Export Plug-In . SVG Version: 6.00 Build 0)  -->
<svg version="1.1" id="Layer_1" xmlns="http://www.w3.org/2000/svg" xmlns:xlink="http://www.w3.org/1999/xlink" x="0px" y="0px"
	 viewBox="0 0 1164.78 791.04" style="enable-background:new 0 0 1164.78 791.04;" xml:space="preserve">
<style type="text/css">
	.st0{fill:#3F3F3E;}
</style>
<g>
	<g>
		<path class="st0" d="M389.69,256.27h-57.65c-17.28,0-32.94,7-44.27,18.33c-11.33,11.33-18.33,26.99-18.33,44.27
			c0,27.28,17.44,50.46,41.76,59.04v89.05c28.2,8.29,43.93,38.77,48.37,48.6v-99.64c-3.88-0.63-6.87-4.01-6.87-8.08
			c0-4.54,3.67-8.21,8.18-8.21c4.54,0,8.21,3.67,8.21,8.21c0,4.07-2.99,7.45-6.9,8.08v99.64c4.43-9.84,20.2-40.31,48.39-48.6v-89.05
			c8.89-3.12,16.87-8.24,23.42-14.77c11.33-11.33,18.33-26.96,18.33-44.27C452.33,284.31,424.29,256.27,389.69,256.27z
			 M400.97,350.69c-3.51,1.26-7.32,1.94-11.28,1.94h-28.83h-28.83c-3.93,0-7.74-0.68-11.25-1.94c-13.09-4.64-22.5-17.15-22.5-31.82
			c0-18.62,15.16-33.76,33.76-33.76h57.65c18.62,0,33.78,15.13,33.78,33.76C423.47,333.54,414.08,346.05,400.97,350.69z"/>
		<circle class="st0" cx="332.71" cy="318.88" r="13.91"/>
		<circle class="st0" cx="389.37" cy="318.88" r="13.91"/>
	</g>
</g>
<g>
	<g>
		<path class="st0" d="M551.49,316.01v51.58h-7.81l-26.75-42.81v42.81h-6.19v-51.58h7.74l26.82,42.81v-42.81H551.49z"/>
		<path class="st0" d="M595.85,355.07h-23.06l-4.42,12.53h-6.56l18.42-51.58h8.92l17.83,51.58h-6.78L595.85,355.07z M574.48,350.13
			h19.6l-9.73-28.07L574.48,350.13z"/>
		<path class="st0" d="M639.69,347.99h-15.92v19.67h-6.48v-51.58h22.03c12.6,0,17.83,6.12,17.83,16.14c0,8.18-3.39,13.34-11.2,15.03
			l11.35,20.34h-6.93L639.69,347.99z M639.03,342.98c8.18,0,11.64-3.61,11.64-10.83c0-7.37-3.39-10.91-11.64-10.91h-15.25v21.74
			H639.03z"/>
		<path class="st0" d="M691.49,347.99h-15.92v19.67h-6.48v-51.58h22.03c12.6,0,17.83,6.12,17.83,16.14c0,8.18-3.39,13.34-11.2,15.03
			l11.35,20.34h-6.93L691.49,347.99z M690.83,342.98c8.18,0,11.64-3.61,11.64-10.83c0-7.37-3.39-10.91-11.64-10.91h-15.25v21.74
			H690.83z"/>
		<path class="st0" d="M750.51,355.07h-23.06l-4.42,12.53h-6.56l18.42-51.58h8.92l17.83,51.58h-6.78L750.51,355.07z M729.14,350.13
			h19.6l-9.73-28.07L729.14,350.13z"/>
		<path class="st0" d="M806.96,321.61h-16.14v45.98h-6.48v-45.98h-16.06v-5.6h38.68V321.61z"/>
		<path class="st0" d="M824.49,316.01v51.58h-6.48v-51.58H824.49z"/>
		<path class="st0" d="M857.28,363.02l15.92-47.01h6.48l-17.83,51.58h-9.14l-17.91-51.58h6.56L857.28,363.02z"/>
		<path class="st0" d="M896.48,321.24v16.8h25.2v5.23h-25.2v19.08h28.15v5.23H890v-51.58h34.63v5.23H896.48z"/>
		<path class="st0" d="M551.71,440.84c0,10.61-5.97,15.18-19.89,15.18h-22.55v-51.58h21.96c12.82,0,18.27,4.13,18.27,13.71
			c0,8.84-6.71,10.61-6.71,10.61S551.71,430.96,551.71,440.84z M521.42,425.66h8.03c5.08,0,7.37-2.14,7.37-6.93
			c0-4.42-2.21-6.34-7.37-6.34h-8.03V425.66z M539.04,440.84c0-5.45-2.73-7.81-8.99-7.81h-8.62v15.03h8.62
			C536.31,448.06,539.04,445.92,539.04,440.84z"/>
		<path class="st0" d="M559.82,404.44h12.16v32.57c0,7.96,2.87,11.27,9.8,11.27c6.93,0,9.87-3.32,9.87-11.27v-32.57h12.08v32.57
			c0,14.37-6.56,20.48-21.96,20.48c-15.4,0-21.96-6.12-21.96-20.48V404.44z"/>
		<path class="st0" d="M634.97,456.02h-20.19v-51.58h20.19c17.98,0,25.64,7.74,25.64,25.79S652.95,456.02,634.97,456.02z
			 M626.94,412.98v34.48h7.44c9.5,0,13.56-5.16,13.56-17.24c0-12.08-4.05-17.24-13.56-17.24H626.94z"/>
		<path class="st0" d="M689.65,456.02h-20.19v-51.58h20.19c17.98,0,25.64,7.74,25.64,25.79S707.63,456.02,689.65,456.02z
			 M681.62,412.98v34.48h7.44c9.5,0,13.56-5.16,13.56-17.24c0-12.08-4.05-17.24-13.56-17.24H681.62z"/>
		<path class="st0" d="M745.8,456.02h-11.5v-19.75l-18.27-31.83h13.34l10.68,20.56l10.68-20.56h12.75l-17.68,31.83V456.02z"/>
	</g>
</g>
</svg>
